<mxfile host="Electron" agent="Mozilla/5.0 (Macintosh; Intel Mac OS X 10_15_7) AppleWebKit/537.36 (KHTML, like Gecko) draw.io/25.0.2 Chrome/128.0.6613.186 Electron/32.2.5 Safari/537.36" version="25.0.2">
  <diagram name="Page-1" id="7O_XdmsdUJWnm0bT749b">
    <mxGraphModel dx="1008" dy="824" grid="1" gridSize="10" guides="1" tooltips="1" connect="1" arrows="1" fold="1" page="1" pageScale="1" pageWidth="850" pageHeight="1100" math="0" shadow="0">
      <root>
        <mxCell id="0" />
        <mxCell id="1" parent="0" />
        <mxCell id="kp_PE9Vq5TOkweq_zNzJ-2" value="" style="shape=table;startSize=0;container=1;collapsible=0;childLayout=tableLayout;fillColor=none;dashed=1;" parent="1" vertex="1">
          <mxGeometry x="160" y="80" width="360" height="360" as="geometry" />
        </mxCell>
        <mxCell id="kp_PE9Vq5TOkweq_zNzJ-3" value="" style="shape=tableRow;horizontal=0;startSize=0;swimlaneHead=0;swimlaneBody=0;strokeColor=inherit;top=0;left=0;bottom=0;right=0;collapsible=0;dropTarget=0;fillColor=none;points=[[0,0.5],[1,0.5]];portConstraint=eastwest;" parent="kp_PE9Vq5TOkweq_zNzJ-2" vertex="1">
          <mxGeometry width="360" height="60" as="geometry" />
        </mxCell>
        <mxCell id="kp_PE9Vq5TOkweq_zNzJ-4" value="" style="shape=partialRectangle;html=1;whiteSpace=wrap;connectable=0;strokeColor=inherit;overflow=hidden;fillColor=none;top=0;left=0;bottom=0;right=0;pointerEvents=1;" parent="kp_PE9Vq5TOkweq_zNzJ-3" vertex="1">
          <mxGeometry width="60" height="60" as="geometry">
            <mxRectangle width="60" height="60" as="alternateBounds" />
          </mxGeometry>
        </mxCell>
        <mxCell id="kp_PE9Vq5TOkweq_zNzJ-5" value="" style="shape=partialRectangle;html=1;whiteSpace=wrap;connectable=0;strokeColor=inherit;overflow=hidden;fillColor=none;top=0;left=0;bottom=0;right=0;pointerEvents=1;" parent="kp_PE9Vq5TOkweq_zNzJ-3" vertex="1">
          <mxGeometry x="60" width="60" height="60" as="geometry">
            <mxRectangle width="60" height="60" as="alternateBounds" />
          </mxGeometry>
        </mxCell>
        <mxCell id="kp_PE9Vq5TOkweq_zNzJ-6" value="" style="shape=partialRectangle;html=1;whiteSpace=wrap;connectable=0;strokeColor=inherit;overflow=hidden;fillColor=none;top=0;left=0;bottom=0;right=0;pointerEvents=1;" parent="kp_PE9Vq5TOkweq_zNzJ-3" vertex="1">
          <mxGeometry x="120" width="60" height="60" as="geometry">
            <mxRectangle width="60" height="60" as="alternateBounds" />
          </mxGeometry>
        </mxCell>
        <mxCell id="kp_PE9Vq5TOkweq_zNzJ-7" value="" style="shape=partialRectangle;html=1;whiteSpace=wrap;connectable=0;strokeColor=inherit;overflow=hidden;fillColor=none;top=0;left=0;bottom=0;right=0;pointerEvents=1;" parent="kp_PE9Vq5TOkweq_zNzJ-3" vertex="1">
          <mxGeometry x="180" width="60" height="60" as="geometry">
            <mxRectangle width="60" height="60" as="alternateBounds" />
          </mxGeometry>
        </mxCell>
        <mxCell id="kp_PE9Vq5TOkweq_zNzJ-8" value="" style="shape=partialRectangle;html=1;whiteSpace=wrap;connectable=0;strokeColor=inherit;overflow=hidden;fillColor=none;top=0;left=0;bottom=0;right=0;pointerEvents=1;" parent="kp_PE9Vq5TOkweq_zNzJ-3" vertex="1">
          <mxGeometry x="240" width="60" height="60" as="geometry">
            <mxRectangle width="60" height="60" as="alternateBounds" />
          </mxGeometry>
        </mxCell>
        <mxCell id="kp_PE9Vq5TOkweq_zNzJ-9" value="" style="shape=partialRectangle;html=1;whiteSpace=wrap;connectable=0;strokeColor=inherit;overflow=hidden;fillColor=none;top=0;left=0;bottom=0;right=0;pointerEvents=1;" parent="kp_PE9Vq5TOkweq_zNzJ-3" vertex="1">
          <mxGeometry x="300" width="60" height="60" as="geometry">
            <mxRectangle width="60" height="60" as="alternateBounds" />
          </mxGeometry>
        </mxCell>
        <mxCell id="kp_PE9Vq5TOkweq_zNzJ-11" value="" style="shape=tableRow;horizontal=0;startSize=0;swimlaneHead=0;swimlaneBody=0;strokeColor=inherit;top=0;left=0;bottom=0;right=0;collapsible=0;dropTarget=0;fillColor=none;points=[[0,0.5],[1,0.5]];portConstraint=eastwest;" parent="kp_PE9Vq5TOkweq_zNzJ-2" vertex="1">
          <mxGeometry y="60" width="360" height="60" as="geometry" />
        </mxCell>
        <mxCell id="kp_PE9Vq5TOkweq_zNzJ-12" value="" style="shape=partialRectangle;html=1;whiteSpace=wrap;connectable=0;strokeColor=inherit;overflow=hidden;fillColor=none;top=0;left=0;bottom=0;right=0;pointerEvents=1;" parent="kp_PE9Vq5TOkweq_zNzJ-11" vertex="1">
          <mxGeometry width="60" height="60" as="geometry">
            <mxRectangle width="60" height="60" as="alternateBounds" />
          </mxGeometry>
        </mxCell>
        <mxCell id="kp_PE9Vq5TOkweq_zNzJ-13" value="" style="shape=partialRectangle;html=1;whiteSpace=wrap;connectable=0;strokeColor=inherit;overflow=hidden;fillColor=none;top=0;left=0;bottom=0;right=0;pointerEvents=1;" parent="kp_PE9Vq5TOkweq_zNzJ-11" vertex="1">
          <mxGeometry x="60" width="60" height="60" as="geometry">
            <mxRectangle width="60" height="60" as="alternateBounds" />
          </mxGeometry>
        </mxCell>
        <mxCell id="kp_PE9Vq5TOkweq_zNzJ-14" value="" style="shape=partialRectangle;html=1;whiteSpace=wrap;connectable=0;strokeColor=inherit;overflow=hidden;fillColor=none;top=0;left=0;bottom=0;right=0;pointerEvents=1;" parent="kp_PE9Vq5TOkweq_zNzJ-11" vertex="1">
          <mxGeometry x="120" width="60" height="60" as="geometry">
            <mxRectangle width="60" height="60" as="alternateBounds" />
          </mxGeometry>
        </mxCell>
        <mxCell id="kp_PE9Vq5TOkweq_zNzJ-15" value="" style="shape=partialRectangle;html=1;whiteSpace=wrap;connectable=0;strokeColor=inherit;overflow=hidden;fillColor=none;top=0;left=0;bottom=0;right=0;pointerEvents=1;" parent="kp_PE9Vq5TOkweq_zNzJ-11" vertex="1">
          <mxGeometry x="180" width="60" height="60" as="geometry">
            <mxRectangle width="60" height="60" as="alternateBounds" />
          </mxGeometry>
        </mxCell>
        <mxCell id="kp_PE9Vq5TOkweq_zNzJ-16" value="" style="shape=partialRectangle;html=1;whiteSpace=wrap;connectable=0;strokeColor=inherit;overflow=hidden;fillColor=none;top=0;left=0;bottom=0;right=0;pointerEvents=1;" parent="kp_PE9Vq5TOkweq_zNzJ-11" vertex="1">
          <mxGeometry x="240" width="60" height="60" as="geometry">
            <mxRectangle width="60" height="60" as="alternateBounds" />
          </mxGeometry>
        </mxCell>
        <mxCell id="kp_PE9Vq5TOkweq_zNzJ-17" value="" style="shape=partialRectangle;html=1;whiteSpace=wrap;connectable=0;strokeColor=inherit;overflow=hidden;fillColor=none;top=0;left=0;bottom=0;right=0;pointerEvents=1;" parent="kp_PE9Vq5TOkweq_zNzJ-11" vertex="1">
          <mxGeometry x="300" width="60" height="60" as="geometry">
            <mxRectangle width="60" height="60" as="alternateBounds" />
          </mxGeometry>
        </mxCell>
        <mxCell id="kp_PE9Vq5TOkweq_zNzJ-19" value="" style="shape=tableRow;horizontal=0;startSize=0;swimlaneHead=0;swimlaneBody=0;strokeColor=inherit;top=0;left=0;bottom=0;right=0;collapsible=0;dropTarget=0;fillColor=none;points=[[0,0.5],[1,0.5]];portConstraint=eastwest;" parent="kp_PE9Vq5TOkweq_zNzJ-2" vertex="1">
          <mxGeometry y="120" width="360" height="62" as="geometry" />
        </mxCell>
        <mxCell id="kp_PE9Vq5TOkweq_zNzJ-20" value="" style="shape=partialRectangle;html=1;whiteSpace=wrap;connectable=0;strokeColor=inherit;overflow=hidden;fillColor=none;top=0;left=0;bottom=0;right=0;pointerEvents=1;" parent="kp_PE9Vq5TOkweq_zNzJ-19" vertex="1">
          <mxGeometry width="60" height="62" as="geometry">
            <mxRectangle width="60" height="62" as="alternateBounds" />
          </mxGeometry>
        </mxCell>
        <mxCell id="kp_PE9Vq5TOkweq_zNzJ-21" value="" style="shape=partialRectangle;html=1;whiteSpace=wrap;connectable=0;strokeColor=inherit;overflow=hidden;fillColor=none;top=0;left=0;bottom=0;right=0;pointerEvents=1;" parent="kp_PE9Vq5TOkweq_zNzJ-19" vertex="1">
          <mxGeometry x="60" width="60" height="62" as="geometry">
            <mxRectangle width="60" height="62" as="alternateBounds" />
          </mxGeometry>
        </mxCell>
        <mxCell id="kp_PE9Vq5TOkweq_zNzJ-22" value="" style="shape=partialRectangle;html=1;whiteSpace=wrap;connectable=0;strokeColor=inherit;overflow=hidden;fillColor=none;top=0;left=0;bottom=0;right=0;pointerEvents=1;" parent="kp_PE9Vq5TOkweq_zNzJ-19" vertex="1">
          <mxGeometry x="120" width="60" height="62" as="geometry">
            <mxRectangle width="60" height="62" as="alternateBounds" />
          </mxGeometry>
        </mxCell>
        <mxCell id="kp_PE9Vq5TOkweq_zNzJ-23" value="" style="shape=partialRectangle;html=1;whiteSpace=wrap;connectable=0;strokeColor=inherit;overflow=hidden;fillColor=none;top=0;left=0;bottom=0;right=0;pointerEvents=1;" parent="kp_PE9Vq5TOkweq_zNzJ-19" vertex="1">
          <mxGeometry x="180" width="60" height="62" as="geometry">
            <mxRectangle width="60" height="62" as="alternateBounds" />
          </mxGeometry>
        </mxCell>
        <mxCell id="kp_PE9Vq5TOkweq_zNzJ-24" value="" style="shape=partialRectangle;html=1;whiteSpace=wrap;connectable=0;strokeColor=inherit;overflow=hidden;fillColor=none;top=0;left=0;bottom=0;right=0;pointerEvents=1;" parent="kp_PE9Vq5TOkweq_zNzJ-19" vertex="1">
          <mxGeometry x="240" width="60" height="62" as="geometry">
            <mxRectangle width="60" height="62" as="alternateBounds" />
          </mxGeometry>
        </mxCell>
        <mxCell id="kp_PE9Vq5TOkweq_zNzJ-25" value="" style="shape=partialRectangle;html=1;whiteSpace=wrap;connectable=0;strokeColor=inherit;overflow=hidden;fillColor=none;top=0;left=0;bottom=0;right=0;pointerEvents=1;" parent="kp_PE9Vq5TOkweq_zNzJ-19" vertex="1">
          <mxGeometry x="300" width="60" height="62" as="geometry">
            <mxRectangle width="60" height="62" as="alternateBounds" />
          </mxGeometry>
        </mxCell>
        <mxCell id="kp_PE9Vq5TOkweq_zNzJ-27" value="" style="shape=tableRow;horizontal=0;startSize=0;swimlaneHead=0;swimlaneBody=0;strokeColor=inherit;top=0;left=0;bottom=0;right=0;collapsible=0;dropTarget=0;fillColor=none;points=[[0,0.5],[1,0.5]];portConstraint=eastwest;" parent="kp_PE9Vq5TOkweq_zNzJ-2" vertex="1">
          <mxGeometry y="182" width="360" height="58" as="geometry" />
        </mxCell>
        <mxCell id="kp_PE9Vq5TOkweq_zNzJ-28" value="" style="shape=partialRectangle;html=1;whiteSpace=wrap;connectable=0;strokeColor=inherit;overflow=hidden;fillColor=none;top=0;left=0;bottom=0;right=0;pointerEvents=1;" parent="kp_PE9Vq5TOkweq_zNzJ-27" vertex="1">
          <mxGeometry width="60" height="58" as="geometry">
            <mxRectangle width="60" height="58" as="alternateBounds" />
          </mxGeometry>
        </mxCell>
        <mxCell id="kp_PE9Vq5TOkweq_zNzJ-29" value="" style="shape=partialRectangle;html=1;whiteSpace=wrap;connectable=0;strokeColor=inherit;overflow=hidden;fillColor=none;top=0;left=0;bottom=0;right=0;pointerEvents=1;" parent="kp_PE9Vq5TOkweq_zNzJ-27" vertex="1">
          <mxGeometry x="60" width="60" height="58" as="geometry">
            <mxRectangle width="60" height="58" as="alternateBounds" />
          </mxGeometry>
        </mxCell>
        <mxCell id="kp_PE9Vq5TOkweq_zNzJ-30" value="" style="shape=partialRectangle;html=1;whiteSpace=wrap;connectable=0;strokeColor=inherit;overflow=hidden;fillColor=none;top=0;left=0;bottom=0;right=0;pointerEvents=1;" parent="kp_PE9Vq5TOkweq_zNzJ-27" vertex="1">
          <mxGeometry x="120" width="60" height="58" as="geometry">
            <mxRectangle width="60" height="58" as="alternateBounds" />
          </mxGeometry>
        </mxCell>
        <mxCell id="kp_PE9Vq5TOkweq_zNzJ-31" value="" style="shape=partialRectangle;html=1;whiteSpace=wrap;connectable=0;strokeColor=inherit;overflow=hidden;fillColor=none;top=0;left=0;bottom=0;right=0;pointerEvents=1;" parent="kp_PE9Vq5TOkweq_zNzJ-27" vertex="1">
          <mxGeometry x="180" width="60" height="58" as="geometry">
            <mxRectangle width="60" height="58" as="alternateBounds" />
          </mxGeometry>
        </mxCell>
        <mxCell id="kp_PE9Vq5TOkweq_zNzJ-32" value="" style="shape=partialRectangle;html=1;whiteSpace=wrap;connectable=0;strokeColor=inherit;overflow=hidden;fillColor=none;top=0;left=0;bottom=0;right=0;pointerEvents=1;" parent="kp_PE9Vq5TOkweq_zNzJ-27" vertex="1">
          <mxGeometry x="240" width="60" height="58" as="geometry">
            <mxRectangle width="60" height="58" as="alternateBounds" />
          </mxGeometry>
        </mxCell>
        <mxCell id="kp_PE9Vq5TOkweq_zNzJ-33" value="" style="shape=partialRectangle;html=1;whiteSpace=wrap;connectable=0;strokeColor=inherit;overflow=hidden;fillColor=none;top=0;left=0;bottom=0;right=0;pointerEvents=1;" parent="kp_PE9Vq5TOkweq_zNzJ-27" vertex="1">
          <mxGeometry x="300" width="60" height="58" as="geometry">
            <mxRectangle width="60" height="58" as="alternateBounds" />
          </mxGeometry>
        </mxCell>
        <mxCell id="kp_PE9Vq5TOkweq_zNzJ-35" value="" style="shape=tableRow;horizontal=0;startSize=0;swimlaneHead=0;swimlaneBody=0;strokeColor=inherit;top=0;left=0;bottom=0;right=0;collapsible=0;dropTarget=0;fillColor=none;points=[[0,0.5],[1,0.5]];portConstraint=eastwest;" parent="kp_PE9Vq5TOkweq_zNzJ-2" vertex="1">
          <mxGeometry y="240" width="360" height="60" as="geometry" />
        </mxCell>
        <mxCell id="kp_PE9Vq5TOkweq_zNzJ-36" value="" style="shape=partialRectangle;html=1;whiteSpace=wrap;connectable=0;strokeColor=inherit;overflow=hidden;fillColor=none;top=0;left=0;bottom=0;right=0;pointerEvents=1;" parent="kp_PE9Vq5TOkweq_zNzJ-35" vertex="1">
          <mxGeometry width="60" height="60" as="geometry">
            <mxRectangle width="60" height="60" as="alternateBounds" />
          </mxGeometry>
        </mxCell>
        <mxCell id="kp_PE9Vq5TOkweq_zNzJ-37" value="" style="shape=partialRectangle;html=1;whiteSpace=wrap;connectable=0;strokeColor=inherit;overflow=hidden;fillColor=none;top=0;left=0;bottom=0;right=0;pointerEvents=1;" parent="kp_PE9Vq5TOkweq_zNzJ-35" vertex="1">
          <mxGeometry x="60" width="60" height="60" as="geometry">
            <mxRectangle width="60" height="60" as="alternateBounds" />
          </mxGeometry>
        </mxCell>
        <mxCell id="kp_PE9Vq5TOkweq_zNzJ-38" value="" style="shape=partialRectangle;html=1;whiteSpace=wrap;connectable=0;strokeColor=inherit;overflow=hidden;fillColor=none;top=0;left=0;bottom=0;right=0;pointerEvents=1;" parent="kp_PE9Vq5TOkweq_zNzJ-35" vertex="1">
          <mxGeometry x="120" width="60" height="60" as="geometry">
            <mxRectangle width="60" height="60" as="alternateBounds" />
          </mxGeometry>
        </mxCell>
        <mxCell id="kp_PE9Vq5TOkweq_zNzJ-39" value="" style="shape=partialRectangle;html=1;whiteSpace=wrap;connectable=0;strokeColor=inherit;overflow=hidden;fillColor=none;top=0;left=0;bottom=0;right=0;pointerEvents=1;" parent="kp_PE9Vq5TOkweq_zNzJ-35" vertex="1">
          <mxGeometry x="180" width="60" height="60" as="geometry">
            <mxRectangle width="60" height="60" as="alternateBounds" />
          </mxGeometry>
        </mxCell>
        <mxCell id="kp_PE9Vq5TOkweq_zNzJ-40" value="" style="shape=partialRectangle;html=1;whiteSpace=wrap;connectable=0;strokeColor=inherit;overflow=hidden;fillColor=none;top=0;left=0;bottom=0;right=0;pointerEvents=1;" parent="kp_PE9Vq5TOkweq_zNzJ-35" vertex="1">
          <mxGeometry x="240" width="60" height="60" as="geometry">
            <mxRectangle width="60" height="60" as="alternateBounds" />
          </mxGeometry>
        </mxCell>
        <mxCell id="kp_PE9Vq5TOkweq_zNzJ-41" value="" style="shape=partialRectangle;html=1;whiteSpace=wrap;connectable=0;strokeColor=inherit;overflow=hidden;fillColor=none;top=0;left=0;bottom=0;right=0;pointerEvents=1;" parent="kp_PE9Vq5TOkweq_zNzJ-35" vertex="1">
          <mxGeometry x="300" width="60" height="60" as="geometry">
            <mxRectangle width="60" height="60" as="alternateBounds" />
          </mxGeometry>
        </mxCell>
        <mxCell id="kp_PE9Vq5TOkweq_zNzJ-43" value="" style="shape=tableRow;horizontal=0;startSize=0;swimlaneHead=0;swimlaneBody=0;strokeColor=inherit;top=0;left=0;bottom=0;right=0;collapsible=0;dropTarget=0;fillColor=none;points=[[0,0.5],[1,0.5]];portConstraint=eastwest;" parent="kp_PE9Vq5TOkweq_zNzJ-2" vertex="1">
          <mxGeometry y="300" width="360" height="60" as="geometry" />
        </mxCell>
        <mxCell id="kp_PE9Vq5TOkweq_zNzJ-44" value="" style="shape=partialRectangle;html=1;whiteSpace=wrap;connectable=0;strokeColor=inherit;overflow=hidden;fillColor=none;top=0;left=0;bottom=0;right=0;pointerEvents=1;" parent="kp_PE9Vq5TOkweq_zNzJ-43" vertex="1">
          <mxGeometry width="60" height="60" as="geometry">
            <mxRectangle width="60" height="60" as="alternateBounds" />
          </mxGeometry>
        </mxCell>
        <mxCell id="kp_PE9Vq5TOkweq_zNzJ-45" value="" style="shape=partialRectangle;html=1;whiteSpace=wrap;connectable=0;strokeColor=inherit;overflow=hidden;fillColor=none;top=0;left=0;bottom=0;right=0;pointerEvents=1;" parent="kp_PE9Vq5TOkweq_zNzJ-43" vertex="1">
          <mxGeometry x="60" width="60" height="60" as="geometry">
            <mxRectangle width="60" height="60" as="alternateBounds" />
          </mxGeometry>
        </mxCell>
        <mxCell id="kp_PE9Vq5TOkweq_zNzJ-46" value="" style="shape=partialRectangle;html=1;whiteSpace=wrap;connectable=0;strokeColor=inherit;overflow=hidden;fillColor=none;top=0;left=0;bottom=0;right=0;pointerEvents=1;" parent="kp_PE9Vq5TOkweq_zNzJ-43" vertex="1">
          <mxGeometry x="120" width="60" height="60" as="geometry">
            <mxRectangle width="60" height="60" as="alternateBounds" />
          </mxGeometry>
        </mxCell>
        <mxCell id="kp_PE9Vq5TOkweq_zNzJ-47" value="" style="shape=partialRectangle;html=1;whiteSpace=wrap;connectable=0;strokeColor=inherit;overflow=hidden;fillColor=none;top=0;left=0;bottom=0;right=0;pointerEvents=1;" parent="kp_PE9Vq5TOkweq_zNzJ-43" vertex="1">
          <mxGeometry x="180" width="60" height="60" as="geometry">
            <mxRectangle width="60" height="60" as="alternateBounds" />
          </mxGeometry>
        </mxCell>
        <mxCell id="kp_PE9Vq5TOkweq_zNzJ-48" value="" style="shape=partialRectangle;html=1;whiteSpace=wrap;connectable=0;strokeColor=inherit;overflow=hidden;fillColor=none;top=0;left=0;bottom=0;right=0;pointerEvents=1;" parent="kp_PE9Vq5TOkweq_zNzJ-43" vertex="1">
          <mxGeometry x="240" width="60" height="60" as="geometry">
            <mxRectangle width="60" height="60" as="alternateBounds" />
          </mxGeometry>
        </mxCell>
        <mxCell id="kp_PE9Vq5TOkweq_zNzJ-49" value="" style="shape=partialRectangle;html=1;whiteSpace=wrap;connectable=0;strokeColor=inherit;overflow=hidden;fillColor=none;top=0;left=0;bottom=0;right=0;pointerEvents=1;" parent="kp_PE9Vq5TOkweq_zNzJ-43" vertex="1">
          <mxGeometry x="300" width="60" height="60" as="geometry">
            <mxRectangle width="60" height="60" as="alternateBounds" />
          </mxGeometry>
        </mxCell>
        <mxCell id="kp_PE9Vq5TOkweq_zNzJ-59" value="8" style="ellipse;whiteSpace=wrap;html=1;aspect=fixed;fillColor=none;fontColor=#ef4444;" parent="1" vertex="1">
          <mxGeometry x="170" y="90" width="40" height="40" as="geometry" />
        </mxCell>
        <mxCell id="kp_PE9Vq5TOkweq_zNzJ-60" value="9" style="ellipse;whiteSpace=wrap;html=1;aspect=fixed;fillColor=none;fontColor=#ef4444;" parent="1" vertex="1">
          <mxGeometry x="170" y="150" width="40" height="40" as="geometry" />
        </mxCell>
        <mxCell id="kp_PE9Vq5TOkweq_zNzJ-61" value="9" style="ellipse;whiteSpace=wrap;html=1;aspect=fixed;fillColor=none;fontColor=#3b82f6;" parent="1" vertex="1">
          <mxGeometry x="170" y="210" width="40" height="40" as="geometry" />
        </mxCell>
        <mxCell id="kp_PE9Vq5TOkweq_zNzJ-62" value="9" style="ellipse;whiteSpace=wrap;html=1;aspect=fixed;fillColor=none;fontColor=#3b82f6;" parent="1" vertex="1">
          <mxGeometry x="170" y="270" width="40" height="40" as="geometry" />
        </mxCell>
        <mxCell id="kp_PE9Vq5TOkweq_zNzJ-63" value="10" style="ellipse;whiteSpace=wrap;html=1;aspect=fixed;fillColor=none;fontColor=#ef4444;" parent="1" vertex="1">
          <mxGeometry x="170" y="390" width="40" height="40" as="geometry" />
        </mxCell>
        <mxCell id="kp_PE9Vq5TOkweq_zNzJ-64" value="9" style="ellipse;whiteSpace=wrap;html=1;aspect=fixed;fillColor=none;fontColor=#3b82f6;" parent="1" vertex="1">
          <mxGeometry x="170" y="330" width="40" height="40" as="geometry" />
        </mxCell>
        <mxCell id="kp_PE9Vq5TOkweq_zNzJ-65" value="18" style="ellipse;whiteSpace=wrap;html=1;aspect=fixed;fillColor=none;fontColor=#ef4444;" parent="1" vertex="1">
          <mxGeometry x="230" y="150" width="40" height="40" as="geometry" />
        </mxCell>
        <mxCell id="kp_PE9Vq5TOkweq_zNzJ-66" value="18" style="ellipse;whiteSpace=wrap;html=1;aspect=fixed;fillColor=none;fontColor=#3b82f6;" parent="1" vertex="1">
          <mxGeometry x="230" y="210" width="40" height="40" as="geometry" />
        </mxCell>
        <mxCell id="kp_PE9Vq5TOkweq_zNzJ-67" value="19" style="ellipse;whiteSpace=wrap;html=1;aspect=fixed;fillColor=none;fontColor=#ef4444;" parent="1" vertex="1">
          <mxGeometry x="230" y="270" width="40" height="40" as="geometry" />
        </mxCell>
        <mxCell id="kp_PE9Vq5TOkweq_zNzJ-68" value="22" style="ellipse;whiteSpace=wrap;html=1;aspect=fixed;fillColor=none;fontColor=#ef4444;" parent="1" vertex="1">
          <mxGeometry x="230" y="390" width="40" height="40" as="geometry" />
        </mxCell>
        <mxCell id="kp_PE9Vq5TOkweq_zNzJ-69" value="19" style="ellipse;whiteSpace=wrap;html=1;aspect=fixed;fillColor=none;fontColor=#3b82f6;" parent="1" vertex="1">
          <mxGeometry x="230" y="330" width="40" height="40" as="geometry" />
        </mxCell>
        <mxCell id="kp_PE9Vq5TOkweq_zNzJ-70" value="25" style="ellipse;whiteSpace=wrap;html=1;aspect=fixed;fillColor=none;fontColor=#ef4444;" parent="1" vertex="1">
          <mxGeometry x="290" y="210" width="40" height="40" as="geometry" />
        </mxCell>
        <mxCell id="kp_PE9Vq5TOkweq_zNzJ-71" value="30" style="ellipse;whiteSpace=wrap;html=1;aspect=fixed;fillColor=none;fontColor=#ef4444;" parent="1" vertex="1">
          <mxGeometry x="290" y="270" width="40" height="40" as="geometry" />
        </mxCell>
        <mxCell id="kp_PE9Vq5TOkweq_zNzJ-72" value="35" style="ellipse;whiteSpace=wrap;html=1;aspect=fixed;fillColor=none;fontColor=#ef4444;" parent="1" vertex="1">
          <mxGeometry x="290" y="390" width="40" height="40" as="geometry" />
        </mxCell>
        <mxCell id="kp_PE9Vq5TOkweq_zNzJ-73" value="31" style="ellipse;whiteSpace=wrap;html=1;aspect=fixed;fillColor=none;fontColor=#ef4444;" parent="1" vertex="1">
          <mxGeometry x="290" y="330" width="40" height="40" as="geometry" />
        </mxCell>
        <mxCell id="kp_PE9Vq5TOkweq_zNzJ-74" value="39" style="ellipse;whiteSpace=wrap;html=1;aspect=fixed;fillColor=none;fontColor=#ef4444;" parent="1" vertex="1">
          <mxGeometry x="350" y="270" width="40" height="40" as="geometry" />
        </mxCell>
        <mxCell id="kp_PE9Vq5TOkweq_zNzJ-75" value="50" style="ellipse;whiteSpace=wrap;html=1;aspect=fixed;fillColor=none;fontColor=#ef4444;" parent="1" vertex="1">
          <mxGeometry x="350" y="390" width="40" height="40" as="geometry" />
        </mxCell>
        <mxCell id="kp_PE9Vq5TOkweq_zNzJ-76" value="44" style="ellipse;whiteSpace=wrap;html=1;aspect=fixed;fillColor=none;fontColor=#ef4444;" parent="1" vertex="1">
          <mxGeometry x="350" y="330" width="40" height="40" as="geometry" />
        </mxCell>
        <mxCell id="kp_PE9Vq5TOkweq_zNzJ-77" value="66" style="ellipse;whiteSpace=wrap;html=1;aspect=fixed;fillColor=none;fontColor=#ef4444;" parent="1" vertex="1">
          <mxGeometry x="410" y="390" width="40" height="40" as="geometry" />
        </mxCell>
        <mxCell id="kp_PE9Vq5TOkweq_zNzJ-78" value="55" style="ellipse;whiteSpace=wrap;html=1;aspect=fixed;fillColor=none;fontColor=#ef4444;" parent="1" vertex="1">
          <mxGeometry x="410" y="330" width="40" height="40" as="geometry" />
        </mxCell>
        <mxCell id="kp_PE9Vq5TOkweq_zNzJ-79" value="80" style="ellipse;whiteSpace=wrap;html=1;aspect=fixed;fillColor=none;fontColor=#ef4444;" parent="1" vertex="1">
          <mxGeometry x="470" y="390" width="40" height="40" as="geometry" />
        </mxCell>
        <mxCell id="kp_PE9Vq5TOkweq_zNzJ-88" value="" style="shape=table;startSize=0;container=1;collapsible=0;childLayout=tableLayout;fillColor=none;strokeColor=none;" parent="1" vertex="1">
          <mxGeometry x="120" y="80" width="40" height="360" as="geometry" />
        </mxCell>
        <mxCell id="kp_PE9Vq5TOkweq_zNzJ-89" value="" style="shape=tableRow;horizontal=0;startSize=0;swimlaneHead=0;swimlaneBody=0;strokeColor=inherit;top=0;left=0;bottom=0;right=0;collapsible=0;dropTarget=0;fillColor=none;points=[[0,0.5],[1,0.5]];portConstraint=eastwest;" parent="kp_PE9Vq5TOkweq_zNzJ-88" vertex="1">
          <mxGeometry width="40" height="60" as="geometry" />
        </mxCell>
        <mxCell id="kp_PE9Vq5TOkweq_zNzJ-90" value="i = 1" style="shape=partialRectangle;html=1;whiteSpace=wrap;connectable=0;strokeColor=inherit;overflow=hidden;fillColor=none;top=0;left=0;bottom=0;right=0;pointerEvents=1;" parent="kp_PE9Vq5TOkweq_zNzJ-89" vertex="1">
          <mxGeometry width="40" height="60" as="geometry">
            <mxRectangle width="40" height="60" as="alternateBounds" />
          </mxGeometry>
        </mxCell>
        <mxCell id="kp_PE9Vq5TOkweq_zNzJ-91" value="" style="shape=tableRow;horizontal=0;startSize=0;swimlaneHead=0;swimlaneBody=0;strokeColor=inherit;top=0;left=0;bottom=0;right=0;collapsible=0;dropTarget=0;fillColor=none;points=[[0,0.5],[1,0.5]];portConstraint=eastwest;" parent="kp_PE9Vq5TOkweq_zNzJ-88" vertex="1">
          <mxGeometry y="60" width="40" height="60" as="geometry" />
        </mxCell>
        <mxCell id="kp_PE9Vq5TOkweq_zNzJ-92" value="i = 2" style="shape=partialRectangle;html=1;whiteSpace=wrap;connectable=0;strokeColor=inherit;overflow=hidden;fillColor=none;top=0;left=0;bottom=0;right=0;pointerEvents=1;" parent="kp_PE9Vq5TOkweq_zNzJ-91" vertex="1">
          <mxGeometry width="40" height="60" as="geometry">
            <mxRectangle width="40" height="60" as="alternateBounds" />
          </mxGeometry>
        </mxCell>
        <mxCell id="kp_PE9Vq5TOkweq_zNzJ-93" value="" style="shape=tableRow;horizontal=0;startSize=0;swimlaneHead=0;swimlaneBody=0;strokeColor=inherit;top=0;left=0;bottom=0;right=0;collapsible=0;dropTarget=0;fillColor=none;points=[[0,0.5],[1,0.5]];portConstraint=eastwest;" parent="kp_PE9Vq5TOkweq_zNzJ-88" vertex="1">
          <mxGeometry y="120" width="40" height="60" as="geometry" />
        </mxCell>
        <mxCell id="kp_PE9Vq5TOkweq_zNzJ-94" value="i = 3" style="shape=partialRectangle;html=1;whiteSpace=wrap;connectable=0;strokeColor=inherit;overflow=hidden;fillColor=none;top=0;left=0;bottom=0;right=0;pointerEvents=1;" parent="kp_PE9Vq5TOkweq_zNzJ-93" vertex="1">
          <mxGeometry width="40" height="60" as="geometry">
            <mxRectangle width="40" height="60" as="alternateBounds" />
          </mxGeometry>
        </mxCell>
        <mxCell id="kp_PE9Vq5TOkweq_zNzJ-95" value="" style="shape=tableRow;horizontal=0;startSize=0;swimlaneHead=0;swimlaneBody=0;strokeColor=inherit;top=0;left=0;bottom=0;right=0;collapsible=0;dropTarget=0;fillColor=none;points=[[0,0.5],[1,0.5]];portConstraint=eastwest;" parent="kp_PE9Vq5TOkweq_zNzJ-88" vertex="1">
          <mxGeometry y="180" width="40" height="60" as="geometry" />
        </mxCell>
        <mxCell id="kp_PE9Vq5TOkweq_zNzJ-96" value="i = 4" style="shape=partialRectangle;html=1;whiteSpace=wrap;connectable=0;strokeColor=inherit;overflow=hidden;fillColor=none;top=0;left=0;bottom=0;right=0;pointerEvents=1;" parent="kp_PE9Vq5TOkweq_zNzJ-95" vertex="1">
          <mxGeometry width="40" height="60" as="geometry">
            <mxRectangle width="40" height="60" as="alternateBounds" />
          </mxGeometry>
        </mxCell>
        <mxCell id="kp_PE9Vq5TOkweq_zNzJ-97" value="" style="shape=tableRow;horizontal=0;startSize=0;swimlaneHead=0;swimlaneBody=0;strokeColor=inherit;top=0;left=0;bottom=0;right=0;collapsible=0;dropTarget=0;fillColor=none;points=[[0,0.5],[1,0.5]];portConstraint=eastwest;" parent="kp_PE9Vq5TOkweq_zNzJ-88" vertex="1">
          <mxGeometry y="240" width="40" height="60" as="geometry" />
        </mxCell>
        <mxCell id="kp_PE9Vq5TOkweq_zNzJ-98" value="i = 5" style="shape=partialRectangle;html=1;whiteSpace=wrap;connectable=0;strokeColor=inherit;overflow=hidden;fillColor=none;top=0;left=0;bottom=0;right=0;pointerEvents=1;" parent="kp_PE9Vq5TOkweq_zNzJ-97" vertex="1">
          <mxGeometry width="40" height="60" as="geometry">
            <mxRectangle width="40" height="60" as="alternateBounds" />
          </mxGeometry>
        </mxCell>
        <mxCell id="kp_PE9Vq5TOkweq_zNzJ-99" value="" style="shape=tableRow;horizontal=0;startSize=0;swimlaneHead=0;swimlaneBody=0;strokeColor=inherit;top=0;left=0;bottom=0;right=0;collapsible=0;dropTarget=0;fillColor=none;points=[[0,0.5],[1,0.5]];portConstraint=eastwest;" parent="kp_PE9Vq5TOkweq_zNzJ-88" vertex="1">
          <mxGeometry y="300" width="40" height="60" as="geometry" />
        </mxCell>
        <mxCell id="kp_PE9Vq5TOkweq_zNzJ-100" value="i = 6" style="shape=partialRectangle;html=1;whiteSpace=wrap;connectable=0;strokeColor=inherit;overflow=hidden;fillColor=none;top=0;left=0;bottom=0;right=0;pointerEvents=1;" parent="kp_PE9Vq5TOkweq_zNzJ-99" vertex="1">
          <mxGeometry width="40" height="60" as="geometry">
            <mxRectangle width="40" height="60" as="alternateBounds" />
          </mxGeometry>
        </mxCell>
        <mxCell id="kp_PE9Vq5TOkweq_zNzJ-101" value="1" style="ellipse;whiteSpace=wrap;html=1;aspect=fixed;fillColor=none;" parent="1" vertex="1">
          <mxGeometry x="80" y="90" width="40" height="40" as="geometry" />
        </mxCell>
        <mxCell id="kp_PE9Vq5TOkweq_zNzJ-102" value="1" style="ellipse;whiteSpace=wrap;html=1;aspect=fixed;fillColor=none;" parent="1" vertex="1">
          <mxGeometry x="80" y="150" width="40" height="40" as="geometry" />
        </mxCell>
        <mxCell id="kp_PE9Vq5TOkweq_zNzJ-103" value="2" style="ellipse;whiteSpace=wrap;html=1;aspect=fixed;fillColor=none;" parent="1" vertex="1">
          <mxGeometry x="80" y="210" width="40" height="40" as="geometry" />
        </mxCell>
        <mxCell id="kp_PE9Vq5TOkweq_zNzJ-104" value="2" style="ellipse;whiteSpace=wrap;html=1;aspect=fixed;fillColor=none;" parent="1" vertex="1">
          <mxGeometry x="80" y="270" width="40" height="40" as="geometry" />
        </mxCell>
        <mxCell id="kp_PE9Vq5TOkweq_zNzJ-105" value="3" style="ellipse;whiteSpace=wrap;html=1;aspect=fixed;fillColor=none;" parent="1" vertex="1">
          <mxGeometry x="80" y="390" width="40" height="40" as="geometry" />
        </mxCell>
        <mxCell id="kp_PE9Vq5TOkweq_zNzJ-106" value="2" style="ellipse;whiteSpace=wrap;html=1;aspect=fixed;fillColor=none;" parent="1" vertex="1">
          <mxGeometry x="80" y="330" width="40" height="40" as="geometry" />
        </mxCell>
        <mxCell id="kp_PE9Vq5TOkweq_zNzJ-107" value="7" style="ellipse;whiteSpace=wrap;html=1;aspect=fixed;fillColor=none;" parent="1" vertex="1">
          <mxGeometry x="20" y="90" width="40" height="40" as="geometry" />
        </mxCell>
        <mxCell id="kp_PE9Vq5TOkweq_zNzJ-108" value="8" style="ellipse;whiteSpace=wrap;html=1;aspect=fixed;fillColor=none;" parent="1" vertex="1">
          <mxGeometry x="20" y="150" width="40" height="40" as="geometry" />
        </mxCell>
        <mxCell id="kp_PE9Vq5TOkweq_zNzJ-109" value="1" style="ellipse;whiteSpace=wrap;html=1;aspect=fixed;fillColor=none;" parent="1" vertex="1">
          <mxGeometry x="20" y="210" width="40" height="40" as="geometry" />
        </mxCell>
        <mxCell id="kp_PE9Vq5TOkweq_zNzJ-110" value="6" style="ellipse;whiteSpace=wrap;html=1;aspect=fixed;fillColor=none;" parent="1" vertex="1">
          <mxGeometry x="20" y="270" width="40" height="40" as="geometry" />
        </mxCell>
        <mxCell id="kp_PE9Vq5TOkweq_zNzJ-111" value="7" style="ellipse;whiteSpace=wrap;html=1;aspect=fixed;fillColor=none;" parent="1" vertex="1">
          <mxGeometry x="20" y="390" width="40" height="40" as="geometry" />
        </mxCell>
        <mxCell id="kp_PE9Vq5TOkweq_zNzJ-112" value="6" style="ellipse;whiteSpace=wrap;html=1;aspect=fixed;fillColor=none;" parent="1" vertex="1">
          <mxGeometry x="20" y="330" width="40" height="40" as="geometry" />
        </mxCell>
        <mxCell id="kp_PE9Vq5TOkweq_zNzJ-115" value="" style="shape=table;startSize=0;container=1;collapsible=0;childLayout=tableLayout;fillColor=none;strokeColor=none;" parent="1" vertex="1">
          <mxGeometry x="160" y="60" width="360" height="20" as="geometry" />
        </mxCell>
        <mxCell id="kp_PE9Vq5TOkweq_zNzJ-116" value="" style="shape=tableRow;horizontal=0;startSize=0;swimlaneHead=0;swimlaneBody=0;strokeColor=inherit;top=0;left=0;bottom=0;right=0;collapsible=0;dropTarget=0;fillColor=none;points=[[0,0.5],[1,0.5]];portConstraint=eastwest;" parent="kp_PE9Vq5TOkweq_zNzJ-115" vertex="1">
          <mxGeometry width="360" height="20" as="geometry" />
        </mxCell>
        <mxCell id="kp_PE9Vq5TOkweq_zNzJ-117" value="t = 1" style="shape=partialRectangle;html=1;whiteSpace=wrap;connectable=0;strokeColor=inherit;overflow=hidden;fillColor=none;top=0;left=0;bottom=0;right=0;pointerEvents=1;" parent="kp_PE9Vq5TOkweq_zNzJ-116" vertex="1">
          <mxGeometry width="60" height="20" as="geometry">
            <mxRectangle width="60" height="20" as="alternateBounds" />
          </mxGeometry>
        </mxCell>
        <mxCell id="kp_PE9Vq5TOkweq_zNzJ-118" value="t = 2" style="shape=partialRectangle;html=1;whiteSpace=wrap;connectable=0;strokeColor=inherit;overflow=hidden;fillColor=none;top=0;left=0;bottom=0;right=0;pointerEvents=1;" parent="kp_PE9Vq5TOkweq_zNzJ-116" vertex="1">
          <mxGeometry x="60" width="60" height="20" as="geometry">
            <mxRectangle width="60" height="20" as="alternateBounds" />
          </mxGeometry>
        </mxCell>
        <mxCell id="kp_PE9Vq5TOkweq_zNzJ-119" value="t = 3" style="shape=partialRectangle;html=1;whiteSpace=wrap;connectable=0;strokeColor=inherit;overflow=hidden;fillColor=none;top=0;left=0;bottom=0;right=0;pointerEvents=1;" parent="kp_PE9Vq5TOkweq_zNzJ-116" vertex="1">
          <mxGeometry x="120" width="60" height="20" as="geometry">
            <mxRectangle width="60" height="20" as="alternateBounds" />
          </mxGeometry>
        </mxCell>
        <mxCell id="kp_PE9Vq5TOkweq_zNzJ-120" value="t = 4" style="shape=partialRectangle;html=1;whiteSpace=wrap;connectable=0;strokeColor=inherit;overflow=hidden;fillColor=none;top=0;left=0;bottom=0;right=0;pointerEvents=1;" parent="kp_PE9Vq5TOkweq_zNzJ-116" vertex="1">
          <mxGeometry x="180" width="60" height="20" as="geometry">
            <mxRectangle width="60" height="20" as="alternateBounds" />
          </mxGeometry>
        </mxCell>
        <mxCell id="kp_PE9Vq5TOkweq_zNzJ-121" value="t = 5" style="shape=partialRectangle;html=1;whiteSpace=wrap;connectable=0;strokeColor=inherit;overflow=hidden;fillColor=none;top=0;left=0;bottom=0;right=0;pointerEvents=1;" parent="kp_PE9Vq5TOkweq_zNzJ-116" vertex="1">
          <mxGeometry x="240" width="60" height="20" as="geometry">
            <mxRectangle width="60" height="20" as="alternateBounds" />
          </mxGeometry>
        </mxCell>
        <mxCell id="kp_PE9Vq5TOkweq_zNzJ-122" value="t = 6" style="shape=partialRectangle;html=1;whiteSpace=wrap;connectable=0;strokeColor=inherit;overflow=hidden;fillColor=none;top=0;left=0;bottom=0;right=0;pointerEvents=1;" parent="kp_PE9Vq5TOkweq_zNzJ-116" vertex="1">
          <mxGeometry x="300" width="60" height="20" as="geometry">
            <mxRectangle width="60" height="20" as="alternateBounds" />
          </mxGeometry>
        </mxCell>
        <mxCell id="kp_PE9Vq5TOkweq_zNzJ-123" value="" style="shape=table;startSize=0;container=1;collapsible=0;childLayout=tableLayout;fillColor=none;strokeColor=none;" parent="1" vertex="1">
          <mxGeometry x="10" y="60" width="120" height="20" as="geometry" />
        </mxCell>
        <mxCell id="kp_PE9Vq5TOkweq_zNzJ-124" value="" style="shape=tableRow;horizontal=0;startSize=0;swimlaneHead=0;swimlaneBody=0;strokeColor=inherit;top=0;left=0;bottom=0;right=0;collapsible=0;dropTarget=0;fillColor=none;points=[[0,0.5],[1,0.5]];portConstraint=eastwest;" parent="kp_PE9Vq5TOkweq_zNzJ-123" vertex="1">
          <mxGeometry width="120" height="20" as="geometry" />
        </mxCell>
        <mxCell id="kp_PE9Vq5TOkweq_zNzJ-125" value="aᵢ" style="shape=partialRectangle;html=1;whiteSpace=wrap;connectable=0;strokeColor=inherit;overflow=hidden;fillColor=none;top=0;left=0;bottom=0;right=0;pointerEvents=1;" parent="kp_PE9Vq5TOkweq_zNzJ-124" vertex="1">
          <mxGeometry width="60" height="20" as="geometry">
            <mxRectangle width="60" height="20" as="alternateBounds" />
          </mxGeometry>
        </mxCell>
        <mxCell id="kp_PE9Vq5TOkweq_zNzJ-126" value="bᵢ" style="shape=partialRectangle;html=1;whiteSpace=wrap;connectable=0;strokeColor=inherit;overflow=hidden;fillColor=none;top=0;left=0;bottom=0;right=0;pointerEvents=1;" parent="kp_PE9Vq5TOkweq_zNzJ-124" vertex="1">
          <mxGeometry x="60" width="60" height="20" as="geometry">
            <mxRectangle width="60" height="20" as="alternateBounds" />
          </mxGeometry>
        </mxCell>
        <mxCell id="kp_PE9Vq5TOkweq_zNzJ-130" value="" style="endArrow=classic;html=1;rounded=0;strokeColor=#3b82f6;" parent="1" source="kp_PE9Vq5TOkweq_zNzJ-60" target="kp_PE9Vq5TOkweq_zNzJ-61" edge="1">
          <mxGeometry width="50" height="50" relative="1" as="geometry">
            <mxPoint x="270" y="320" as="sourcePoint" />
            <mxPoint x="320" y="270" as="targetPoint" />
          </mxGeometry>
        </mxCell>
        <mxCell id="kp_PE9Vq5TOkweq_zNzJ-131" value="" style="endArrow=classic;html=1;rounded=0;strokeColor=#3b82f6;" parent="1" source="kp_PE9Vq5TOkweq_zNzJ-61" target="kp_PE9Vq5TOkweq_zNzJ-62" edge="1">
          <mxGeometry width="50" height="50" relative="1" as="geometry">
            <mxPoint x="200" y="200" as="sourcePoint" />
            <mxPoint x="200" y="220" as="targetPoint" />
          </mxGeometry>
        </mxCell>
        <mxCell id="kp_PE9Vq5TOkweq_zNzJ-132" value="" style="endArrow=classic;html=1;rounded=0;strokeColor=#3b82f6;" parent="1" source="kp_PE9Vq5TOkweq_zNzJ-62" target="kp_PE9Vq5TOkweq_zNzJ-64" edge="1">
          <mxGeometry width="50" height="50" relative="1" as="geometry">
            <mxPoint x="200" y="260" as="sourcePoint" />
            <mxPoint x="200" y="280" as="targetPoint" />
          </mxGeometry>
        </mxCell>
        <mxCell id="kp_PE9Vq5TOkweq_zNzJ-133" value="" style="endArrow=classic;html=1;rounded=0;strokeColor=#3b82f6;" parent="1" source="kp_PE9Vq5TOkweq_zNzJ-65" target="kp_PE9Vq5TOkweq_zNzJ-66" edge="1">
          <mxGeometry width="50" height="50" relative="1" as="geometry">
            <mxPoint x="200" y="320" as="sourcePoint" />
            <mxPoint x="200" y="340" as="targetPoint" />
          </mxGeometry>
        </mxCell>
        <mxCell id="kp_PE9Vq5TOkweq_zNzJ-134" value="" style="endArrow=classic;html=1;rounded=0;strokeColor=#3b82f6;" parent="1" source="kp_PE9Vq5TOkweq_zNzJ-67" target="kp_PE9Vq5TOkweq_zNzJ-69" edge="1">
          <mxGeometry width="50" height="50" relative="1" as="geometry">
            <mxPoint x="260" y="200" as="sourcePoint" />
            <mxPoint x="260" y="220" as="targetPoint" />
          </mxGeometry>
        </mxCell>
        <mxCell id="kp_PE9Vq5TOkweq_zNzJ-135" value="" style="endArrow=classic;html=1;rounded=0;strokeColor=#ef4444;" parent="1" source="kp_PE9Vq5TOkweq_zNzJ-59" target="kp_PE9Vq5TOkweq_zNzJ-65" edge="1">
          <mxGeometry width="50" height="50" relative="1" as="geometry">
            <mxPoint x="260" y="200" as="sourcePoint" />
            <mxPoint x="260" y="220" as="targetPoint" />
          </mxGeometry>
        </mxCell>
        <mxCell id="kp_PE9Vq5TOkweq_zNzJ-136" value="" style="endArrow=classic;html=1;rounded=0;strokeColor=#ef4444;" parent="1" source="kp_PE9Vq5TOkweq_zNzJ-61" target="kp_PE9Vq5TOkweq_zNzJ-67" edge="1">
          <mxGeometry width="50" height="50" relative="1" as="geometry">
            <mxPoint x="214" y="134" as="sourcePoint" />
            <mxPoint x="246" y="166" as="targetPoint" />
          </mxGeometry>
        </mxCell>
        <mxCell id="kp_PE9Vq5TOkweq_zNzJ-137" value="" style="endArrow=classic;html=1;rounded=0;strokeColor=#ef4444;" parent="1" source="kp_PE9Vq5TOkweq_zNzJ-64" target="kp_PE9Vq5TOkweq_zNzJ-68" edge="1">
          <mxGeometry width="50" height="50" relative="1" as="geometry">
            <mxPoint x="214" y="254" as="sourcePoint" />
            <mxPoint x="246" y="286" as="targetPoint" />
          </mxGeometry>
        </mxCell>
        <mxCell id="kp_PE9Vq5TOkweq_zNzJ-138" value="" style="endArrow=classic;html=1;rounded=0;strokeColor=#ef4444;" parent="1" source="kp_PE9Vq5TOkweq_zNzJ-65" target="kp_PE9Vq5TOkweq_zNzJ-70" edge="1">
          <mxGeometry width="50" height="50" relative="1" as="geometry">
            <mxPoint x="214" y="374" as="sourcePoint" />
            <mxPoint x="246" y="406" as="targetPoint" />
          </mxGeometry>
        </mxCell>
        <mxCell id="kp_PE9Vq5TOkweq_zNzJ-139" value="" style="endArrow=classic;html=1;rounded=0;strokeColor=#ef4444;" parent="1" source="kp_PE9Vq5TOkweq_zNzJ-66" target="kp_PE9Vq5TOkweq_zNzJ-71" edge="1">
          <mxGeometry width="50" height="50" relative="1" as="geometry">
            <mxPoint x="274" y="194" as="sourcePoint" />
            <mxPoint x="306" y="226" as="targetPoint" />
          </mxGeometry>
        </mxCell>
        <mxCell id="kp_PE9Vq5TOkweq_zNzJ-140" value="" style="endArrow=classic;html=1;rounded=0;strokeColor=#ef4444;" parent="1" source="kp_PE9Vq5TOkweq_zNzJ-67" target="kp_PE9Vq5TOkweq_zNzJ-73" edge="1">
          <mxGeometry width="50" height="50" relative="1" as="geometry">
            <mxPoint x="274" y="254" as="sourcePoint" />
            <mxPoint x="306" y="286" as="targetPoint" />
          </mxGeometry>
        </mxCell>
        <mxCell id="kp_PE9Vq5TOkweq_zNzJ-141" value="" style="endArrow=classic;html=1;rounded=0;strokeColor=#ef4444;" parent="1" source="kp_PE9Vq5TOkweq_zNzJ-69" target="kp_PE9Vq5TOkweq_zNzJ-72" edge="1">
          <mxGeometry width="50" height="50" relative="1" as="geometry">
            <mxPoint x="274" y="314" as="sourcePoint" />
            <mxPoint x="306" y="346" as="targetPoint" />
          </mxGeometry>
        </mxCell>
        <mxCell id="kp_PE9Vq5TOkweq_zNzJ-142" value="" style="endArrow=classic;html=1;rounded=0;strokeColor=#ef4444;" parent="1" source="kp_PE9Vq5TOkweq_zNzJ-70" target="kp_PE9Vq5TOkweq_zNzJ-74" edge="1">
          <mxGeometry width="50" height="50" relative="1" as="geometry">
            <mxPoint x="274" y="374" as="sourcePoint" />
            <mxPoint x="306" y="406" as="targetPoint" />
          </mxGeometry>
        </mxCell>
        <mxCell id="kp_PE9Vq5TOkweq_zNzJ-143" value="" style="endArrow=classic;html=1;rounded=0;strokeColor=#ef4444;" parent="1" source="kp_PE9Vq5TOkweq_zNzJ-71" target="kp_PE9Vq5TOkweq_zNzJ-76" edge="1">
          <mxGeometry width="50" height="50" relative="1" as="geometry">
            <mxPoint x="334" y="254" as="sourcePoint" />
            <mxPoint x="366" y="286" as="targetPoint" />
          </mxGeometry>
        </mxCell>
        <mxCell id="kp_PE9Vq5TOkweq_zNzJ-144" value="" style="endArrow=classic;html=1;rounded=0;strokeColor=#ef4444;" parent="1" source="kp_PE9Vq5TOkweq_zNzJ-73" target="kp_PE9Vq5TOkweq_zNzJ-75" edge="1">
          <mxGeometry width="50" height="50" relative="1" as="geometry">
            <mxPoint x="334" y="314" as="sourcePoint" />
            <mxPoint x="366" y="346" as="targetPoint" />
          </mxGeometry>
        </mxCell>
        <mxCell id="kp_PE9Vq5TOkweq_zNzJ-145" value="" style="endArrow=classic;html=1;rounded=0;strokeColor=#ef4444;" parent="1" source="kp_PE9Vq5TOkweq_zNzJ-74" target="kp_PE9Vq5TOkweq_zNzJ-78" edge="1">
          <mxGeometry width="50" height="50" relative="1" as="geometry">
            <mxPoint x="334" y="374" as="sourcePoint" />
            <mxPoint x="366" y="406" as="targetPoint" />
          </mxGeometry>
        </mxCell>
        <mxCell id="kp_PE9Vq5TOkweq_zNzJ-146" value="" style="endArrow=classic;html=1;rounded=0;strokeColor=#ef4444;" parent="1" source="kp_PE9Vq5TOkweq_zNzJ-76" target="kp_PE9Vq5TOkweq_zNzJ-77" edge="1">
          <mxGeometry width="50" height="50" relative="1" as="geometry">
            <mxPoint x="394" y="314" as="sourcePoint" />
            <mxPoint x="426" y="346" as="targetPoint" />
          </mxGeometry>
        </mxCell>
        <mxCell id="kp_PE9Vq5TOkweq_zNzJ-147" value="" style="endArrow=classic;html=1;rounded=0;strokeColor=#ef4444;" parent="1" source="kp_PE9Vq5TOkweq_zNzJ-78" target="kp_PE9Vq5TOkweq_zNzJ-79" edge="1">
          <mxGeometry width="50" height="50" relative="1" as="geometry">
            <mxPoint x="394" y="374" as="sourcePoint" />
            <mxPoint x="426" y="406" as="targetPoint" />
          </mxGeometry>
        </mxCell>
        <mxCell id="_SQWSTwSd3DG5OlLa47S-1" value="" style="shape=table;startSize=0;container=1;collapsible=0;childLayout=tableLayout;fillColor=none;dashed=1;" vertex="1" parent="1">
          <mxGeometry x="160" y="450" width="360" height="80" as="geometry" />
        </mxCell>
        <mxCell id="_SQWSTwSd3DG5OlLa47S-2" value="" style="shape=tableRow;horizontal=0;startSize=0;swimlaneHead=0;swimlaneBody=0;strokeColor=inherit;top=0;left=0;bottom=0;right=0;collapsible=0;dropTarget=0;fillColor=none;points=[[0,0.5],[1,0.5]];portConstraint=eastwest;" vertex="1" parent="_SQWSTwSd3DG5OlLa47S-1">
          <mxGeometry width="360" height="40" as="geometry" />
        </mxCell>
        <mxCell id="_SQWSTwSd3DG5OlLa47S-4" value="46" style="shape=partialRectangle;html=1;whiteSpace=wrap;connectable=0;strokeColor=inherit;overflow=hidden;fillColor=none;top=0;left=0;bottom=0;right=0;pointerEvents=1;" vertex="1" parent="_SQWSTwSd3DG5OlLa47S-2">
          <mxGeometry width="60" height="40" as="geometry">
            <mxRectangle width="60" height="40" as="alternateBounds" />
          </mxGeometry>
        </mxCell>
        <mxCell id="_SQWSTwSd3DG5OlLa47S-5" value="57" style="shape=partialRectangle;html=1;whiteSpace=wrap;connectable=0;strokeColor=inherit;overflow=hidden;fillColor=none;top=0;left=0;bottom=0;right=0;pointerEvents=1;" vertex="1" parent="_SQWSTwSd3DG5OlLa47S-2">
          <mxGeometry x="60" width="60" height="40" as="geometry">
            <mxRectangle width="60" height="40" as="alternateBounds" />
          </mxGeometry>
        </mxCell>
        <mxCell id="_SQWSTwSd3DG5OlLa47S-6" value="68" style="shape=partialRectangle;html=1;whiteSpace=wrap;connectable=0;strokeColor=inherit;overflow=hidden;fillColor=none;top=0;left=0;bottom=0;right=0;pointerEvents=1;" vertex="1" parent="_SQWSTwSd3DG5OlLa47S-2">
          <mxGeometry x="120" width="60" height="40" as="geometry">
            <mxRectangle width="60" height="40" as="alternateBounds" />
          </mxGeometry>
        </mxCell>
        <mxCell id="_SQWSTwSd3DG5OlLa47S-7" value="79" style="shape=partialRectangle;html=1;whiteSpace=wrap;connectable=0;strokeColor=inherit;overflow=hidden;fillColor=none;top=0;left=0;bottom=0;right=0;pointerEvents=1;" vertex="1" parent="_SQWSTwSd3DG5OlLa47S-2">
          <mxGeometry x="180" width="60" height="40" as="geometry">
            <mxRectangle width="60" height="40" as="alternateBounds" />
          </mxGeometry>
        </mxCell>
        <mxCell id="_SQWSTwSd3DG5OlLa47S-8" value="90" style="shape=partialRectangle;html=1;whiteSpace=wrap;connectable=0;strokeColor=inherit;overflow=hidden;fillColor=none;top=0;left=0;bottom=0;right=0;pointerEvents=1;" vertex="1" parent="_SQWSTwSd3DG5OlLa47S-2">
          <mxGeometry x="240" width="60" height="40" as="geometry">
            <mxRectangle width="60" height="40" as="alternateBounds" />
          </mxGeometry>
        </mxCell>
        <mxCell id="_SQWSTwSd3DG5OlLa47S-9" value="101" style="shape=partialRectangle;html=1;whiteSpace=wrap;connectable=0;strokeColor=inherit;overflow=hidden;fillColor=none;top=0;left=0;bottom=0;right=0;pointerEvents=1;" vertex="1" parent="_SQWSTwSd3DG5OlLa47S-2">
          <mxGeometry x="300" width="60" height="40" as="geometry">
            <mxRectangle width="60" height="40" as="alternateBounds" />
          </mxGeometry>
        </mxCell>
        <mxCell id="_SQWSTwSd3DG5OlLa47S-10" value="" style="shape=tableRow;horizontal=0;startSize=0;swimlaneHead=0;swimlaneBody=0;strokeColor=inherit;top=0;left=0;bottom=0;right=0;collapsible=0;dropTarget=0;fillColor=none;points=[[0,0.5],[1,0.5]];portConstraint=eastwest;" vertex="1" parent="_SQWSTwSd3DG5OlLa47S-1">
          <mxGeometry y="40" width="360" height="40" as="geometry" />
        </mxCell>
        <mxCell id="_SQWSTwSd3DG5OlLa47S-12" value="36" style="shape=partialRectangle;html=1;whiteSpace=wrap;connectable=0;strokeColor=inherit;overflow=hidden;fillColor=none;top=0;left=0;bottom=0;right=0;pointerEvents=1;" vertex="1" parent="_SQWSTwSd3DG5OlLa47S-10">
          <mxGeometry width="60" height="40" as="geometry">
            <mxRectangle width="60" height="40" as="alternateBounds" />
          </mxGeometry>
        </mxCell>
        <mxCell id="_SQWSTwSd3DG5OlLa47S-13" value="35" style="shape=partialRectangle;html=1;whiteSpace=wrap;connectable=0;strokeColor=inherit;overflow=hidden;fillColor=none;top=0;left=0;bottom=0;right=0;pointerEvents=1;" vertex="1" parent="_SQWSTwSd3DG5OlLa47S-10">
          <mxGeometry x="60" width="60" height="40" as="geometry">
            <mxRectangle width="60" height="40" as="alternateBounds" />
          </mxGeometry>
        </mxCell>
        <mxCell id="_SQWSTwSd3DG5OlLa47S-14" value="33" style="shape=partialRectangle;html=1;whiteSpace=wrap;connectable=0;strokeColor=inherit;overflow=hidden;fillColor=none;top=0;left=0;bottom=0;right=0;pointerEvents=1;" vertex="1" parent="_SQWSTwSd3DG5OlLa47S-10">
          <mxGeometry x="120" width="60" height="40" as="geometry">
            <mxRectangle width="60" height="40" as="alternateBounds" />
          </mxGeometry>
        </mxCell>
        <mxCell id="_SQWSTwSd3DG5OlLa47S-15" value="29" style="shape=partialRectangle;html=1;whiteSpace=wrap;connectable=0;strokeColor=inherit;overflow=hidden;fillColor=none;top=0;left=0;bottom=0;right=0;pointerEvents=1;" vertex="1" parent="_SQWSTwSd3DG5OlLa47S-10">
          <mxGeometry x="180" width="60" height="40" as="geometry">
            <mxRectangle width="60" height="40" as="alternateBounds" />
          </mxGeometry>
        </mxCell>
        <mxCell id="_SQWSTwSd3DG5OlLa47S-16" value="24" style="shape=partialRectangle;html=1;whiteSpace=wrap;connectable=0;strokeColor=inherit;overflow=hidden;fillColor=none;top=0;left=0;bottom=0;right=0;pointerEvents=1;" vertex="1" parent="_SQWSTwSd3DG5OlLa47S-10">
          <mxGeometry x="240" width="60" height="40" as="geometry">
            <mxRectangle width="60" height="40" as="alternateBounds" />
          </mxGeometry>
        </mxCell>
        <mxCell id="_SQWSTwSd3DG5OlLa47S-17" value="21" style="shape=partialRectangle;html=1;whiteSpace=wrap;connectable=0;strokeColor=inherit;overflow=hidden;fillColor=none;top=0;left=0;bottom=0;right=0;pointerEvents=1;" vertex="1" parent="_SQWSTwSd3DG5OlLa47S-10">
          <mxGeometry x="300" width="60" height="40" as="geometry">
            <mxRectangle width="60" height="40" as="alternateBounds" />
          </mxGeometry>
        </mxCell>
        <mxCell id="_SQWSTwSd3DG5OlLa47S-18" value="" style="shape=table;startSize=0;container=1;collapsible=0;childLayout=tableLayout;fillColor=none;strokeColor=none;align=center;" vertex="1" parent="1">
          <mxGeometry x="60" y="450" width="90" height="80" as="geometry" />
        </mxCell>
        <mxCell id="_SQWSTwSd3DG5OlLa47S-19" value="" style="shape=tableRow;horizontal=0;startSize=0;swimlaneHead=0;swimlaneBody=0;strokeColor=inherit;top=0;left=0;bottom=0;right=0;collapsible=0;dropTarget=0;fillColor=none;points=[[0,0.5],[1,0.5]];portConstraint=eastwest;" vertex="1" parent="_SQWSTwSd3DG5OlLa47S-18">
          <mxGeometry width="90" height="40" as="geometry" />
        </mxCell>
        <mxCell id="_SQWSTwSd3DG5OlLa47S-20" value="Σ aᵢ + t bᵢ" style="shape=partialRectangle;html=1;whiteSpace=wrap;connectable=0;strokeColor=inherit;overflow=hidden;fillColor=none;top=0;left=0;bottom=0;right=0;pointerEvents=1;align=right;" vertex="1" parent="_SQWSTwSd3DG5OlLa47S-19">
          <mxGeometry width="90" height="40" as="geometry">
            <mxRectangle width="90" height="40" as="alternateBounds" />
          </mxGeometry>
        </mxCell>
        <mxCell id="_SQWSTwSd3DG5OlLa47S-21" value="" style="shape=tableRow;horizontal=0;startSize=0;swimlaneHead=0;swimlaneBody=0;strokeColor=inherit;top=0;left=0;bottom=0;right=0;collapsible=0;dropTarget=0;fillColor=none;points=[[0,0.5],[1,0.5]];portConstraint=eastwest;" vertex="1" parent="_SQWSTwSd3DG5OlLa47S-18">
          <mxGeometry y="40" width="90" height="40" as="geometry" />
        </mxCell>
        <mxCell id="_SQWSTwSd3DG5OlLa47S-22" value="Σ nums1" style="shape=partialRectangle;html=1;whiteSpace=wrap;connectable=0;strokeColor=inherit;overflow=hidden;fillColor=none;top=0;left=0;bottom=0;right=0;pointerEvents=1;align=right;" vertex="1" parent="_SQWSTwSd3DG5OlLa47S-21">
          <mxGeometry width="90" height="40" as="geometry">
            <mxRectangle width="90" height="40" as="alternateBounds" />
          </mxGeometry>
        </mxCell>
      </root>
    </mxGraphModel>
  </diagram>
</mxfile>
